<svg xmlns="http://www.w3.org/2000/svg" viewBox="0 0 64 64" fill="#d63384">
  <circle cx="32" cy="32" r="10" />
  <path d="M32 2a6 6 0 0 1 6 6v12a6 6 0 0 1-12 0V8a6 6 0 0 1 6-6zM32 50a6 6 0 0 1 6 6v6a6 6 0 0 1-12 0v-6a6 6 0 0 1 6-6zM2 32a6 6 0 0 1 6-6h12a6 6 0 0 1 0 12H8a6 6 0 0 1-6-6zM50 32a6 6 0 0 1 6-6h6a6 6 0 0 1 0 12h-6a6 6 0 0 1-6-6zM12.93 12.93a6 6 0 0 1 8.49 0l8.49 8.49a6 6 0 0 1-8.49 8.49l-8.49-8.49a6 6 0 0 1 0-8.49zM51.07 51.07a6 6 0 0 1 8.49 0l8.49 8.49a6 6 0 0 1-8.49 8.49l-8.49-8.49a6 6 0 0 1 0-8.49zM12.93 51.07a6 6 0 0 1 8.49 0l8.49 8.49a6 6 0 0 1-8.49 8.49l-8.49-8.49a6 6 0 0 1 0-8.49zM51.07 12.93a6 6 0 0 1 8.49 0l8.49 8.49a6 6 0 0 1-8.49 8.49l-8.49-8.49a6 6 0 0 1 0-8.49z" />
</svg>
